<svg xmlns="http://www.w3.org/2000/svg" viewBox="0 0 64 64" fill="currentColor" aria-hidden="true">
  <defs>
    <linearGradient id="socialGradient" x1="0%" y1="0%" x2="100%" y2="100%">
      <stop offset="0%" style="stop-color:#3B82F6;stop-opacity:1" />
      <stop offset="50%" style="stop-color:#8B5CF6;stop-opacity:1" />
      <stop offset="100%" style="stop-color:#EC4899;stop-opacity:1" />
    </linearGradient>
  </defs>
  
  <!-- Central hub circle -->
  <circle cx="32" cy="32" r="8" fill="url(#socialGradient)" opacity="0.9"/>
  
  <!-- Outer social platform circles -->
  <circle cx="32" cy="12" r="5" fill="url(#socialGradient)" opacity="0.7"/>
  <circle cx="52" cy="32" r="5" fill="url(#socialGradient)" opacity="0.7"/>
  <circle cx="32" cy="52" r="5" fill="url(#socialGradient)" opacity="0.7"/>
  <circle cx="12" cy="32" r="5" fill="url(#socialGradient)" opacity="0.7"/>
  
  <!-- Diagonal platform circles -->
  <circle cx="46" cy="18" r="4" fill="url(#socialGradient)" opacity="0.6"/>
  <circle cx="46" cy="46" r="4" fill="url(#socialGradient)" opacity="0.6"/>
  <circle cx="18" cy="46" r="4" fill="url(#socialGradient)" opacity="0.6"/>
  <circle cx="18" cy="18" r="4" fill="url(#socialGradient)" opacity="0.6"/>
  
  <!-- Connection lines -->
  <line x1="32" y1="24" x2="32" y2="17" stroke="url(#socialGradient)" stroke-width="2" opacity="0.5"/>
  <line x1="40" y1="32" x2="47" y2="32" stroke="url(#socialGradient)" stroke-width="2" opacity="0.5"/>
  <line x1="32" y1="40" x2="32" y2="47" stroke="url(#socialGradient)" stroke-width="2" opacity="0.5"/>
  <line x1="24" y1="32" x2="17" y2="32" stroke="url(#socialGradient)" stroke-width="2" opacity="0.5"/>
  
  <!-- Diagonal connections -->
  <line x1="38" y1="26" x2="42" y2="22" stroke="url(#socialGradient)" stroke-width="1.5" opacity="0.4"/>
  <line x1="38" y1="38" x2="42" y2="42" stroke="url(#socialGradient)" stroke-width="1.5" opacity="0.4"/>
  <line x1="26" y1="38" x2="22" y2="42" stroke="url(#socialGradient)" stroke-width="1.5" opacity="0.4"/>
  <line x1="26" y1="26" x2="22" y2="22" stroke="url(#socialGradient)" stroke-width="1.5" opacity="0.4"/>
  
  <!-- Curved connection arcs for dynamic feel -->
  <path d="M 32 12 Q 42 22 52 32" stroke="url(#socialGradient)" stroke-width="1" fill="none" opacity="0.3"/>
  <path d="M 52 32 Q 42 42 32 52" stroke="url(#socialGradient)" stroke-width="1" fill="none" opacity="0.3"/>
  <path d="M 32 52 Q 22 42 12 32" stroke="url(#socialGradient)" stroke-width="1" fill="none" opacity="0.3"/>
  <path d="M 12 32 Q 22 22 32 12" stroke="url(#socialGradient)" stroke-width="1" fill="none" opacity="0.3"/>
</svg>
